<?xml version="1.0" encoding="UTF-8"?>
<svg width="33px" height="40px" viewBox="0 0 33 40" version="1.1" xmlns="http://www.w3.org/2000/svg" xmlns:xlink="http://www.w3.org/1999/xlink">
    <!-- Generator: Sketch 43.1 (39012) - http://www.bohemiancoding.com/sketch -->
    <title>paste</title>
    <desc>Created with Sketch.</desc>
    <defs></defs>
    <g id="Page-1" stroke="none" stroke-width="1" fill="none" fill-rule="evenodd">
        <g id="new-keyboard-layout" transform="translate(-524.000000, -48.000000)" fill="#606060">
            <g id="keyboard">
                <g id="Group-2" transform="translate(6.000000, 11.000000)">
                    <path d="M547.090909,40.6363636 L539.490908,40.6363636 C538.727272,38.5272728 536.727273,37 534.363636,37 C532,37 530.000001,38.5272728 529.236364,40.6363636 L521.636364,40.6363636 C519.636364,40.6363636 518,42.2727274 518,44.2727273 L518,73.3636364 C518,75.3636369 519.636364,77 521.636364,77 L547.090909,77 C549.09091,77 550.727273,75.3636369 550.727273,73.3636364 L550.727273,44.2727273 C550.727273,42.2727274 549.09091,40.6363636 547.090909,40.6363636 Z M534.363636,40.6363636 C535.363637,40.6363636 536.181818,41.4545455 536.181818,42.4545455 C536.181818,43.4545454 535.363637,44.2727273 534.363636,44.2727273 C533.363636,44.2727273 532.545455,43.4545454 532.545455,42.4545455 C532.545455,41.4545455 533.363636,40.6363636 534.363636,40.6363636 Z M547.090909,73.3636364 L521.636364,73.3636364 L521.636364,44.2727273 L525.272727,44.2727273 L525.272727,49.7272727 L543.454545,49.7272727 L543.454545,44.2727273 L547.090909,44.2727273 L547.090909,73.3636364 Z" id="paste"></path>
                </g>
            </g>
        </g>
    </g>
</svg>